<svg width="9" height="12" viewBox="0 0 9 12" fill="none" xmlns="http://www.w3.org/2000/svg">
<path d="M0.269302 11.2014L0.704702 11.1041C1.0941 11.0257 1.3496 10.8767 1.3496 10.3739V2.01251L0.269302 1.39527V0.941159L3.1067 0H3.3162V10.3739C3.3162 10.8931 3.6067 11.0555 3.993 11.1363L4.3637 11.2014V11.8351H0.269302V11.2014ZM3.4938 7.61398L5.3957 5.73166C6.0406 5.08226 5.9604 4.62815 5.2672 4.49796L4.7508 4.4007V3.76777H8.7331V4.4007L8.3172 4.48384C7.8554 4.56414 7.4315 4.79213 7.1084 5.13402L5.2991 6.91517L8.8943 11.2994L8.7495 11.8837H6.7829L3.4938 7.61398Z" fill="black"/>
</svg>
