<svg width="10" height="9" viewBox="0 0 10 9" fill="none" xmlns="http://www.w3.org/2000/svg">
<path d="M1.6031 6.35149V2.47078C1.6031 1.98373 1.41 1.78922 0.942699 1.72412L0.4426 1.64569V1.06061L3.1834 0.542969H3.5729V5.85189C3.5729 7.2158 4.3143 7.5075 5.0527 7.5075C5.6574 7.5019 6.2488 7.3279 6.7615 7.0048V2.47078C6.7615 1.98373 6.5683 1.77275 6.0847 1.72412L5.5527 1.64569V1.06061L8.3426 0.542969H8.7452V7.1468C8.7452 7.5523 8.9548 7.7475 9.4548 7.8126L10 7.8613V8.4644L7.2428 9.0001H6.8721V7.3742C6.2755 8.2503 5.2116 8.9977 3.9903 8.9977C2.8127 8.9977 1.6031 8.1695 1.6031 6.35149Z" fill="black"/>
</svg>
